<?xml version="1.0" standalone="no"?>
<!DOCTYPE svg PUBLIC "-//W3C//DTD SVG 20010904//EN"
 "http://www.w3.org/TR/2001/REC-SVG-20010904/DTD/svg10.dtd">
<svg version="1.0" xmlns="http://www.w3.org/2000/svg"
 width="512.000000pt" height="512.000000pt" viewBox="0 0 512.000000 512.000000"
 preserveAspectRatio="xMidYMid meet">
<metadata>
Created by potrace 1.14, written by Peter Selinger 2001-2017
</metadata>
<g transform="translate(0.000000,512.000000) scale(0.100000,-0.100000)"
fill="#000000" stroke="none">
<path d="M2410 5113 c-169 -27 -297 -97 -459 -252 -35 -33 -69 -61 -75 -62
-141 -10 -263 -84 -330 -198 -75 -129 -101 -276 -105 -601 -2 -210 -3 -216
-25 -240 -38 -40 -49 -70 -52 -140 -3 -81 8 -136 46 -217 35 -76 97 -145 156
-173 37 -18 45 -28 55 -63 26 -102 40 -139 83 -228 42 -86 122 -205 171 -254
60 -60 59 -56 39 -139 l-18 -76 -32 6 c-18 3 -42 3 -53 -1 -13 -4 -56 -57
-101 -125 -75 -111 -83 -120 -122 -130 -570 -145 -844 -238 -913 -310 -66 -69
-176 -465 -200 -720 -3 -36 -8 -86 -11 -111 -4 -46 -8 -122 -19 -349 -3 -69
-8 -154 -10 -190 -2 -36 -7 -110 -10 -165 -6 -98 -10 -142 -21 -238 -3 -26 -2
-61 1 -78 14 -63 -144 -59 2162 -59 2054 0 2099 1 2123 20 28 21 31 57 17 210
-16 166 -20 231 -32 510 -7 151 -15 295 -20 345 -2 22 -6 67 -10 100 -3 33 -8
71 -10 85 -2 14 -7 42 -10 64 -23 163 -108 460 -157 547 -21 38 -90 84 -178
119 -77 31 -319 107 -396 125 -11 2 -93 24 -184 48 -91 24 -177 47 -192 50
-19 5 -47 37 -107 126 -45 67 -90 123 -102 126 -11 4 -35 4 -53 1 l-32 -6 -18
75 c-19 81 -19 82 29 130 87 88 184 245 230 375 16 44 20 57 30 101 10 47 17
57 48 70 122 50 227 251 213 407 -7 69 -16 93 -51 132 -22 24 -23 35 -29 230
-3 128 -11 233 -21 280 -9 41 -18 85 -21 98 -6 28 -44 129 -73 192 -101 223
-334 422 -585 499 -70 21 -81 24 -176 42 -55 11 -343 19 -390 12z"/>
</g>
</svg>
